<mxfile host="app.diagrams.net" modified="2023-11-27T13:56:59.088Z" agent="Mozilla/5.0 (Windows NT 10.0; Win64; x64) AppleWebKit/537.36 (KHTML, like Gecko) Chrome/119.0.0.0 Safari/537.36" version="22.1.4" etag="tAr2zdMo073LUIm78drl" type="device">
  <diagram id="nQ38gzAlgRvV64FCMRVf" name="Sayfa -1">
    <mxGraphModel dx="1032" dy="1180" grid="1" gridSize="10" guides="1" tooltips="1" connect="1" arrows="1" fold="1" page="1" pageScale="1" pageWidth="827" pageHeight="1169" math="0" shadow="0">
      <root>
        <mxCell id="0" />
        <mxCell id="1" parent="0" />
        <mxCell id="qGdUiWvcCjTDFg3wkg3f-1" value="&lt;p style=&quot;margin:0px;margin-top:4px;text-align:center;&quot;&gt;&lt;b&gt;Movie&lt;/b&gt;&lt;/p&gt;&lt;hr size=&quot;1&quot;&gt;&lt;p style=&quot;margin:0px;margin-left:4px;&quot;&gt;- Name: Type&lt;/p&gt;&lt;p style=&quot;margin:0px;margin-left:4px;&quot;&gt;- Genre: String&lt;br&gt;&lt;/p&gt;&lt;p style=&quot;margin:0px;margin-left:4px;&quot;&gt;- IsAvailable: Boolean&lt;br&gt;&lt;/p&gt;&lt;hr size=&quot;1&quot;&gt;&lt;p style=&quot;margin:0px;margin-left:4px;&quot;&gt;&lt;br&gt;&lt;/p&gt;" style="verticalAlign=top;align=left;overflow=fill;fontSize=12;fontFamily=Helvetica;html=1;whiteSpace=wrap;" vertex="1" parent="1">
          <mxGeometry x="590" y="200" width="160" height="120" as="geometry" />
        </mxCell>
        <mxCell id="qGdUiWvcCjTDFg3wkg3f-2" value="&lt;p style=&quot;margin:0px;margin-top:4px;text-align:center;&quot;&gt;&lt;b&gt;Membership&lt;/b&gt;&lt;/p&gt;&lt;hr size=&quot;1&quot;&gt;&lt;p style=&quot;margin:0px;margin-left:4px;&quot;&gt;- Ä°sMember: Boolean&lt;/p&gt;&lt;p style=&quot;margin:0px;margin-left:4px;&quot;&gt;- Credit: Int&lt;/p&gt;&lt;hr size=&quot;1&quot;&gt;&lt;p style=&quot;margin:0px;margin-left:4px;&quot;&gt;+buyMovie(Name):&lt;/p&gt;" style="verticalAlign=top;align=left;overflow=fill;fontSize=12;fontFamily=Helvetica;html=1;whiteSpace=wrap;" vertex="1" parent="1">
          <mxGeometry x="40" y="200" width="160" height="120" as="geometry" />
        </mxCell>
        <mxCell id="qGdUiWvcCjTDFg3wkg3f-3" value="&lt;p style=&quot;margin:0px;margin-top:4px;text-align:center;&quot;&gt;&lt;b&gt;Application&lt;/b&gt;&lt;/p&gt;&lt;hr size=&quot;1&quot;&gt;&lt;p style=&quot;margin:0px;margin-left:4px;&quot;&gt;- Movies: Boolean&lt;/p&gt;&lt;p style=&quot;margin:0px;margin-left:4px;&quot;&gt;&lt;br&gt;&lt;/p&gt;&lt;hr size=&quot;1&quot;&gt;&lt;p style=&quot;margin:0px;margin-left:4px;&quot;&gt;+setMember(Nick,Credit):&lt;/p&gt;" style="verticalAlign=top;align=left;overflow=fill;fontSize=12;fontFamily=Helvetica;html=1;whiteSpace=wrap;" vertex="1" parent="1">
          <mxGeometry x="320" y="20" width="160" height="120" as="geometry" />
        </mxCell>
        <mxCell id="qGdUiWvcCjTDFg3wkg3f-4" value="" style="endArrow=diamondThin;endFill=0;endSize=24;html=1;rounded=0;exitX=0.5;exitY=0;exitDx=0;exitDy=0;" edge="1" parent="1" source="qGdUiWvcCjTDFg3wkg3f-2">
          <mxGeometry width="160" relative="1" as="geometry">
            <mxPoint x="80" y="80" as="sourcePoint" />
            <mxPoint x="320" y="79.5" as="targetPoint" />
            <Array as="points">
              <mxPoint x="120" y="80" />
            </Array>
          </mxGeometry>
        </mxCell>
        <mxCell id="qGdUiWvcCjTDFg3wkg3f-5" value="" style="endArrow=diamondThin;endFill=0;endSize=24;html=1;rounded=0;exitX=0.5;exitY=0;exitDx=0;exitDy=0;entryX=1;entryY=0.5;entryDx=0;entryDy=0;" edge="1" parent="1" target="qGdUiWvcCjTDFg3wkg3f-3">
          <mxGeometry width="160" relative="1" as="geometry">
            <mxPoint x="680" y="200" as="sourcePoint" />
            <mxPoint x="880" y="79.5" as="targetPoint" />
            <Array as="points">
              <mxPoint x="680" y="80" />
            </Array>
          </mxGeometry>
        </mxCell>
        <mxCell id="qGdUiWvcCjTDFg3wkg3f-6" value="&lt;p style=&quot;margin:0px;margin-top:4px;text-align:center;&quot;&gt;&lt;b&gt;User&lt;/b&gt;&lt;/p&gt;&lt;hr size=&quot;1&quot;&gt;&lt;p style=&quot;margin:0px;margin-left:4px;&quot;&gt;- NickName:&lt;/p&gt;&lt;p style=&quot;margin:0px;margin-left:4px;&quot;&gt;-Wishlist: List&amp;lt;String&amp;gt;&lt;/p&gt;&lt;hr size=&quot;1&quot;&gt;&lt;p style=&quot;margin:0px;margin-left:4px;&quot;&gt;+setWishList(Name):&lt;/p&gt;&lt;p style=&quot;margin:0px;margin-left:4px;&quot;&gt;&lt;br&gt;&lt;/p&gt;" style="verticalAlign=top;align=left;overflow=fill;fontSize=12;fontFamily=Helvetica;html=1;whiteSpace=wrap;" vertex="1" parent="1">
          <mxGeometry x="40" y="420" width="160" height="120" as="geometry" />
        </mxCell>
        <mxCell id="qGdUiWvcCjTDFg3wkg3f-7" value="" style="edgeStyle=none;html=1;endSize=12;endArrow=block;endFill=0;rounded=0;entryX=0.5;entryY=1;entryDx=0;entryDy=0;exitX=0.5;exitY=0;exitDx=0;exitDy=0;" edge="1" parent="1" source="qGdUiWvcCjTDFg3wkg3f-6" target="qGdUiWvcCjTDFg3wkg3f-2">
          <mxGeometry width="160" relative="1" as="geometry">
            <mxPoint x="30" y="370" as="sourcePoint" />
            <mxPoint x="190" y="370" as="targetPoint" />
          </mxGeometry>
        </mxCell>
        <mxCell id="qGdUiWvcCjTDFg3wkg3f-8" value="1..2" style="text;html=1;align=center;verticalAlign=middle;resizable=0;points=[];autosize=1;strokeColor=none;fillColor=none;" vertex="1" parent="1">
          <mxGeometry x="270" y="88" width="40" height="30" as="geometry" />
        </mxCell>
        <mxCell id="qGdUiWvcCjTDFg3wkg3f-9" value="2" style="text;html=1;align=center;verticalAlign=middle;resizable=0;points=[];autosize=1;strokeColor=none;fillColor=none;" vertex="1" parent="1">
          <mxGeometry x="125" y="168" width="30" height="30" as="geometry" />
        </mxCell>
        <mxCell id="qGdUiWvcCjTDFg3wkg3f-10" value="1..*" style="text;html=1;align=center;verticalAlign=middle;resizable=0;points=[];autosize=1;strokeColor=none;fillColor=none;" vertex="1" parent="1">
          <mxGeometry x="120" y="318" width="40" height="30" as="geometry" />
        </mxCell>
        <mxCell id="qGdUiWvcCjTDFg3wkg3f-11" value="*" style="text;html=1;align=center;verticalAlign=middle;resizable=0;points=[];autosize=1;strokeColor=none;fillColor=none;" vertex="1" parent="1">
          <mxGeometry x="120" y="390" width="30" height="30" as="geometry" />
        </mxCell>
        <mxCell id="qGdUiWvcCjTDFg3wkg3f-12" value="1..*" style="text;html=1;align=center;verticalAlign=middle;resizable=0;points=[];autosize=1;strokeColor=none;fillColor=none;" vertex="1" parent="1">
          <mxGeometry x="480" y="88" width="40" height="30" as="geometry" />
        </mxCell>
        <mxCell id="qGdUiWvcCjTDFg3wkg3f-13" value="*" style="text;html=1;align=center;verticalAlign=middle;resizable=0;points=[];autosize=1;strokeColor=none;fillColor=none;" vertex="1" parent="1">
          <mxGeometry x="635" y="158" width="30" height="30" as="geometry" />
        </mxCell>
      </root>
    </mxGraphModel>
  </diagram>
</mxfile>
